# xmcd
# 
# Track frame offsets:
#     150
#     18750
#     33037
# 
# Disc length: 615
# 
# Revision: 0
# Processed by: cddbd v1.5.2PL0 Copyright (c) Steve Scherf et al.
# Submitted via: BonkEnc v1.0.8
# 
DISCID=11026503
DTITLE=Jacque Reese - Demo CD (age 16)
DYEAR=2002
DGENRE=Country
TTITLE0=Forgive
TTITLE1=Let Him Fly
TTITLE2=At Last
EXTD=
EXTT0=
EXTT1=
EXTT2=
PLAYORDER=
